<?xml version="1.0" encoding="iso-8859-1"?>
<!-- Uploaded to: SVG Repo, www.svgrepo.com, Generator: SVG Repo Mixer Tools -->
<svg height="800px" width="800px" version="1.1" id="Layer_1" xmlns="http://www.w3.org/2000/svg" xmlns:xlink="http://www.w3.org/1999/xlink" 
	 viewBox="0 0 512 512" xml:space="preserve">
<path style="fill:#CFF09E;" d="M158.128,497.465L158.128,497.465c-15.521,0-28.101-12.582-28.101-28.101v-44.575
	c0-15.519,12.582-28.101,28.101-28.101l0,0c15.519,0,28.101,12.582,28.101,28.101v44.575
	C186.23,484.883,173.648,497.465,158.128,497.465z"/>
<path style="fill:#507C5C;" d="M158.128,512c-23.509,0-42.636-19.127-42.636-42.636v-44.575c0-23.509,19.127-42.636,42.636-42.636
	s42.636,19.127,42.636,42.636v44.575C200.765,492.873,181.637,512,158.128,512z M158.128,411.223
	c-7.48,0-13.566,6.086-13.566,13.566v44.575c0,7.48,6.086,13.566,13.566,13.566s13.566-6.086,13.566-13.566v-44.575
	C171.695,417.309,165.609,411.223,158.128,411.223z"/>
<path style="fill:#CFF09E;" d="M353.869,497.465L353.869,497.465c-15.521,0-28.101-12.582-28.101-28.101v-44.575
	c0-15.519,12.582-28.101,28.101-28.101l0,0c15.519,0,28.101,12.582,28.101,28.101v44.575
	C381.97,484.883,369.389,497.465,353.869,497.465z"/>
<g>
	<path style="fill:#507C5C;" d="M353.869,512c-23.509,0-42.636-19.127-42.636-42.636v-44.575c0-23.509,19.127-42.636,42.636-42.636
		c23.511,0,42.638,19.127,42.638,42.636v44.575C396.507,492.873,377.379,512,353.869,512z M353.869,411.223
		c-7.48,0-13.566,6.086-13.566,13.566v44.575c0,7.48,6.086,13.566,13.566,13.566s13.567-6.086,13.567-13.566v-44.575
		C367.437,417.309,361.349,411.223,353.869,411.223z"/>
	<path style="fill:#507C5C;" d="M170.241,127.787c-8.028,0-14.535-6.507-14.535-14.535V42.555C155.706,19.091,174.795,0,198.259,0
		h115.477c23.466,0,42.555,19.091,42.555,42.555v20.669c0,8.028-6.509,14.535-14.535,14.535s-14.535-6.507-14.535-14.535V42.555
		c0-7.435-6.05-13.484-13.484-13.484H198.259c-7.435,0-13.484,6.05-13.484,13.484v70.697
		C184.777,121.279,178.268,127.787,170.241,127.787z"/>
	<path style="fill:#507C5C;" d="M398.083,461.971H113.914c-20.236,0-36.699-16.463-36.699-36.699V135.781
		c0-13.467,7.356-25.829,19.197-32.261c5.348-2.904,11.399-4.438,17.503-4.438h284.17c6.105,0,12.156,1.535,17.502,4.438
		c11.84,6.432,19.197,18.794,19.197,32.261v69.038c0,8.028-6.509,14.535-14.535,14.535s-14.535-6.507-14.535-14.535v-69.038
		c0-3.349-2.067-5.664-4.002-6.715c-1.116-0.606-2.334-0.913-3.627-0.913H113.914c-1.292,0-2.513,0.307-3.628,0.913
		c-1.933,1.051-4,3.366-4,6.715v289.491c0,4.207,3.422,7.628,7.628,7.628h284.17c4.207,0,7.628-3.422,7.628-7.628V288.52
		c0-8.028,6.509-14.535,14.535-14.535c8.026,0,14.535,6.507,14.535,14.535v136.752C434.783,445.508,418.319,461.971,398.083,461.971
		z"/>
</g>
<path style="fill:#CFF09E;" d="M91.751,370.28v54.993c0,12.24,9.923,22.163,22.163,22.163h284.17
	c12.24,0,22.163-9.923,22.163-22.163V370.28c0-39.203-31.78-70.983-70.983-70.983H162.734
	C123.531,299.297,91.751,331.077,91.751,370.28z"/>
<g>
	<path style="fill:#507C5C;" d="M398.083,461.971H113.914c-20.236,0-36.699-16.463-36.699-36.699V370.28
		c0-47.154,38.363-85.517,85.518-85.517h186.531c47.154,0,85.518,38.363,85.518,85.517v54.993
		C434.783,445.508,418.319,461.971,398.083,461.971z M162.732,313.832c-31.126,0-56.448,25.322-56.448,56.446v54.993
		c0,4.207,3.422,7.628,7.628,7.628h284.17c4.207,0,7.628-3.422,7.628-7.628v-54.993c0-31.126-25.322-56.446-56.448-56.446
		L162.732,313.832L162.732,313.832z"/>
	<path style="fill:#507C5C;" d="M348.298,212.09H163.7c-8.028,0-14.535-6.507-14.535-14.535s6.507-14.535,14.535-14.535h184.598
		c8.026,0,14.535,6.507,14.535,14.535S356.324,212.09,348.298,212.09z"/>
	<path style="fill:#507C5C;" d="M348.298,242.612c-8.026,0-14.535-6.507-14.535-14.535v-30.523c0-8.028,6.509-14.535,14.535-14.535
		s14.535,6.507,14.535,14.535v30.523C362.833,236.105,356.324,242.612,348.298,242.612z"/>
</g>
</svg>